<svg width="25" height="17" viewBox="0 0 25 17" fill="none" xmlns="http://www.w3.org/2000/svg">
<path d="M24.35 2.20649C23.4529 2.52447 22.497 2.73523 21.5004 2.83757C22.5257 2.34294 23.3082 1.56567 23.676 0.628806C22.7202 1.08932 21.6647 1.4146 20.54 1.59613C19.6323 0.815204 18.3387 0.331543 16.9275 0.331543C14.1895 0.331543 11.9852 2.1273 11.9852 4.32876C11.9852 4.64551 12.0184 4.95008 12.0998 5.24004C7.98822 5.07801 4.35009 3.4857 1.90607 1.06008C1.47939 1.65826 1.22911 2.34294 1.22911 3.08001C1.22911 4.46399 2.11112 5.6908 3.42585 6.40107C2.63128 6.38889 1.85179 6.20249 1.19141 5.90888C1.19141 5.92106 1.19141 5.9369 1.19141 5.95274C1.19141 7.89469 2.90569 9.50771 5.1537 9.87929C4.75114 9.96823 4.31239 10.0109 3.85706 10.0109C3.54044 10.0109 3.2208 9.99625 2.92077 9.94264C3.56155 11.5252 5.37986 12.6887 7.54193 12.7264C5.85931 13.79 3.72287 14.4308 1.41003 14.4308C1.00445 14.4308 0.615463 14.4162 0.226471 14.376C2.41719 15.5175 5.01348 16.1693 7.81332 16.1693C16.9139 16.1693 21.8894 10.0779 21.8894 4.7978C21.8894 4.62115 21.8819 4.45058 21.8713 4.28124C22.8528 3.71839 23.6776 3.01544 24.35 2.20649Z" fill="white"/>
</svg>
